<svg width="157" height="159" viewBox="0 0 157 159" fill="none" xmlns="http://www.w3.org/2000/svg">
<path d="M115.876 155.22L74.9711 131.603L100.452 87.4683L141.357 111.085L115.876 155.22Z" fill="#598560"/>
<path d="M105.335 81.6763L145.086 104.627L141.357 111.086L101.606 88.1351C98.4449 86.287 94.6234 85.8806 91.0584 86.8522L82.0285 89.3792C81.1087 89.6375 80.3574 88.6468 80.839 87.8126C83.2549 78.7458 88.028 70.4786 94.6721 63.8529C95.1537 63.0187 96.3874 63.1741 96.6235 64.0998L98.9502 73.1832C99.8913 76.7564 102.174 79.8281 105.335 81.6763Z" fill="#F0C419"/>
<path d="M146.12 115.269L141.359 111.085L145.088 104.626L151.092 106.657L146.12 115.269Z" fill="#BA941C"/>
<path d="M86.125 84.9373C86.5201 85.1654 87.0273 85.1669 87.4333 84.8988C88.2962 84.3291 90.2164 83.3797 91.17 83.0504C91.8189 82.8265 92.1643 82.1188 91.9404 81.4699C91.717 80.8228 91.011 80.477 90.36 80.6996C89.1989 81.0999 87.1098 82.1327 86.062 82.824C85.4891 83.2023 85.3326 83.973 85.7102 84.5471C85.82 84.7122 85.9634 84.844 86.125 84.9373Z" fill="#BA941C"/>
<circle cx="14.503" cy="14.503" r="14.503" transform="matrix(-0.866025 -0.5 -0.5 0.866025 133.592 114.289)" fill="#F0C419"/>
<path d="M83.1073 63.3596C41.9147 39.5075 44.0322 12.2982 50.2401 1.675M79.4524 67.7347C30.3953 28.3987 7.1145 18.8471 1.60622 18.9882" stroke="#F46700"/>
</svg>
