<svg width="161" height="149" viewBox="0 0 161 149" fill="none" xmlns="http://www.w3.org/2000/svg">
<path d="M40.6057 145.19L81.9365 121.327L56.1902 76.7333L14.8594 100.596L40.6057 145.19Z" fill="#598560"/>
<path d="M51.2558 70.8811L11.0909 94.0703L14.8587 100.596L55.0236 77.4071C58.2178 75.5398 62.079 75.1291 65.6811 76.1108L74.805 78.6641C75.7344 78.9251 76.4935 77.9241 76.0069 77.0812C73.5658 67.9201 68.7431 59.5669 62.0298 52.8722C61.5432 52.0294 60.2967 52.1863 60.0581 53.1217L57.7072 62.2996C56.7564 65.91 54.45 69.0137 51.2558 70.8811Z" fill="#F0C419"/>
<path d="M10.0471 104.823L14.8574 100.596L11.0897 94.07L5.02344 96.1221L10.0471 104.823Z" fill="#BA941C"/>
<path d="M70.6655 74.176C70.2663 74.4065 69.7538 74.408 69.3437 74.1372C68.4718 73.5615 66.5316 72.6023 65.568 72.2695C64.9124 72.0433 64.5634 71.3282 64.7896 70.6726C65.0154 70.0187 65.7287 69.6693 66.3865 69.8942C67.5597 70.2987 69.6705 71.3423 70.7292 72.0407C71.3081 72.423 71.4662 73.2017 71.0847 73.7817C70.9737 73.9486 70.8288 74.0818 70.6655 74.176Z" fill="#BA941C"/>
<circle cx="42.7227" cy="109.197" r="14.6539" transform="rotate(-30 42.7227 109.197)" fill="#F0C419"/>
<path d="M39.2529 117.251L42.0269 115.65C42.4836 115.386 42.8439 115.144 43.1078 114.924C43.3684 114.699 43.564 114.458 43.6945 114.202C43.8217 113.941 43.9103 113.619 43.9603 113.237L44.4762 112.939L44.9503 116.319L38.3537 120.127L38.1437 119.764C38.3919 118.553 38.6202 117.425 38.8288 116.38C39.0373 115.335 39.1904 114.363 39.2882 113.465C39.3827 112.561 39.3816 111.693 39.2851 110.862C39.1885 110.03 38.9547 109.293 38.5836 108.651C38.3069 108.171 37.9665 107.797 37.5623 107.526C37.1581 107.256 36.7351 107.109 36.2933 107.086C35.8482 107.057 35.4284 107.157 35.0337 107.385C34.5319 107.675 34.1793 108.092 33.9758 108.638C33.7723 109.184 33.7606 109.815 33.9406 110.531L33.4247 110.828C32.7683 108.494 33.3929 106.776 35.2986 105.676C35.9188 105.318 36.5491 105.127 37.1893 105.103C37.8263 105.073 38.4027 105.199 38.9183 105.48C39.4396 105.758 39.8451 106.148 40.1348 106.65C40.545 107.36 40.7594 108.187 40.7781 109.131C40.7993 110.066 40.7004 111.067 40.4814 112.133C40.2625 113.199 39.853 114.905 39.2529 117.251ZM38.8719 118.994L38.7917 119.48L42.9611 117.073C43.5588 116.727 43.9349 116.409 44.0894 116.117C44.2496 115.821 44.2955 115.419 44.227 114.91C44.0685 115.234 43.8953 115.507 43.7073 115.728C43.5217 115.941 43.1752 116.193 42.6678 116.486L39.4794 118.327C39.2257 118.474 39.0731 118.581 39.0218 118.648C38.9671 118.709 38.9172 118.825 38.8719 118.994ZM39.6405 113.43C39.8296 112.742 39.9482 112.069 39.9961 111.41C40.044 110.75 40.0142 110.132 39.9067 109.556C39.7991 108.979 39.6168 108.467 39.3596 108.022C39.0602 107.503 38.6759 107.079 38.2069 106.748C37.7435 106.414 37.2537 106.223 36.7374 106.176C36.2212 106.128 35.7319 106.237 35.2696 106.504C34.8919 106.722 34.5715 107.047 34.3085 107.476C34.4074 107.374 34.5583 107.265 34.7613 107.147C35.1391 106.929 35.5281 106.802 35.9285 106.767C36.3289 106.731 36.7094 106.778 37.0702 106.908C37.4309 107.038 37.7637 107.237 38.0685 107.505C38.3733 107.772 38.6283 108.083 38.8334 108.439C39.2305 109.127 39.4821 109.868 39.5882 110.664C39.6911 111.454 39.7085 112.376 39.6405 113.43ZM47.0204 98.9081L47.1327 99.1027C47.4582 99.6665 47.6724 100.148 47.7751 100.547C47.8834 100.943 47.8657 101.303 47.7218 101.627C47.5802 101.942 47.2867 102.228 46.8413 102.485C46.7568 102.533 46.5163 102.657 46.1198 102.856C45.7202 103.049 45.3343 103.253 44.9622 103.468C44.4885 103.742 44.0808 104.018 43.7388 104.298L44.7087 106.388C45.0452 106.164 45.2642 106.023 45.3657 105.964C46.031 105.58 46.6965 105.32 47.3621 105.184C48.0301 105.038 48.668 105.023 49.2757 105.139C49.8835 105.254 50.4296 105.484 50.914 105.828C51.3952 106.166 51.8034 106.626 52.1387 107.207C52.5521 107.923 52.7542 108.69 52.7449 109.507C52.7356 110.324 52.5105 111.093 52.0696 111.814C51.6343 112.531 51.0135 113.123 50.2073 113.588C49.6886 113.888 49.1851 114.077 48.6969 114.156C48.2087 114.235 47.7887 114.21 47.4368 114.083C47.0874 113.946 46.8345 113.742 46.6783 113.472C46.5513 113.252 46.5212 113.017 46.5879 112.768C46.657 112.511 46.8015 112.318 47.0214 112.191C47.1793 112.1 47.3693 112.058 47.5914 112.065C47.8191 112.069 48.0103 112.12 48.165 112.219C48.7464 112.575 49.1798 112.798 49.4653 112.889C49.7564 112.976 50.088 112.913 50.4601 112.698C51.0239 112.372 51.3774 111.871 51.5206 111.195C51.6661 110.509 51.5452 109.831 51.1578 109.16C50.6565 108.292 49.9411 107.769 49.0117 107.591C48.079 107.408 47.1362 107.592 46.1834 108.142C46.0086 108.243 45.8347 108.358 45.6616 108.488C45.4853 108.613 45.3497 108.71 45.2547 108.78L42.2151 102.675C42.6205 102.335 43.1193 101.995 43.7113 101.653C44.0045 101.484 44.3686 101.281 44.8036 101.045C45.2386 100.809 45.5153 100.657 45.6337 100.588C46.0058 100.373 46.2671 100.208 46.4176 100.091C46.5649 99.968 46.6559 99.8328 46.6908 99.6848C46.7313 99.5337 46.6974 99.3578 46.5891 99.1572L47.0204 98.9081ZM43.2359 103.427L43.5484 103.969C43.7793 103.783 44.078 103.584 44.4445 103.372C44.7715 103.184 45.149 102.984 45.5768 102.775C46.0071 102.557 46.3096 102.397 46.4844 102.296C46.9467 102.029 47.2278 101.78 47.3277 101.55C47.43 101.31 47.4191 101.031 47.2949 100.712C47.0012 101.114 46.6034 101.461 46.1016 101.75C45.9461 101.833 45.7737 101.925 45.5844 102.026C45.3951 102.128 45.2255 102.219 45.0756 102.298C44.9314 102.373 44.8114 102.439 44.7156 102.494C44.6165 102.544 44.4739 102.622 44.2878 102.73C43.786 103.02 43.4354 103.252 43.2359 103.427ZM45.3028 107.613L45.586 108.103L45.9158 107.913C46.4966 107.578 47.0641 107.363 47.6185 107.268C48.1752 107.165 48.6904 107.172 49.1642 107.289C49.6435 107.403 50.0773 107.608 50.4654 107.902C50.8559 108.188 51.1716 108.54 51.4125 108.957C51.7836 109.6 51.9315 110.364 51.8563 111.249C52.1444 110.12 52.0492 109.142 51.5707 108.313C51.2257 107.715 50.7335 107.266 50.0942 106.966C49.4573 106.658 48.7542 106.534 47.9849 106.594C47.2213 106.652 46.4983 106.878 45.8161 107.271C45.6413 107.372 45.4702 107.486 45.3028 107.613ZM47.7382 112.397C47.5152 112.376 47.322 112.412 47.1585 112.507C47.0063 112.595 46.916 112.718 46.8876 112.877C46.856 113.031 46.8858 113.187 46.9769 113.344C47.2634 113.841 47.9032 114.005 48.8966 113.837C48.5053 113.733 48.2105 113.632 48.0122 113.536C47.8139 113.44 47.6741 113.322 47.5927 113.181C47.5211 113.057 47.4959 112.928 47.5171 112.796C47.544 112.66 47.6177 112.527 47.7382 112.397Z" fill="white"/>
<path d="M75.1562 60.4631C117.912 39.5426 117.698 12.2518 112.246 1.22148M78.497 65.0826C130.178 29.2644 154.069 21.36 159.554 21.8851" stroke="#F46700"/>
</svg>
